<svg width="12" height="13" viewBox="0 0 12 13" fill="none" xmlns="http://www.w3.org/2000/svg">
<path d="M6.53727 11.68C5.96393 11.68 5.38393 11.58 4.79727 11.38C4.22393 11.2067 3.93727 10.9667 3.93727 10.66C3.93727 10.6333 3.9506 10.62 3.97727 10.62L4.09727 10.66C4.40393 10.86 4.7906 10.96 5.25727 10.96C6.3906 10.96 7.3906 10.6867 8.25727 10.14C9.1106 9.60667 9.53727 9.08667 9.53727 8.58C9.53727 8.06 9.19727 7.63333 8.51727 7.3C8.14393 7.11333 7.7706 6.98 7.39727 6.9C7.03727 6.82 6.69727 6.78 6.37727 6.78C5.84393 6.78 5.4106 6.85333 5.07727 7C4.94393 6.98667 4.87727 6.9 4.87727 6.74C4.87727 6.55333 5.01727 6.42 5.29727 6.34L5.93727 6.24C7.41727 5.84 8.5706 5.32667 9.39727 4.7C10.2239 4.06 10.6373 3.34667 10.6373 2.56C10.6373 2.17333 10.4173 1.86 9.97727 1.62C9.53727 1.38 8.8706 1.26 7.97727 1.26C7.09727 1.26 6.35727 1.34 5.75727 1.5C5.46393 1.56667 5.07727 1.68 4.59727 1.84C4.1306 1.98667 3.54393 2.18 2.83727 2.42C1.4906 2.87333 0.790599 3.1 0.737266 3.1C0.510599 3.1 0.397266 2.94 0.397266 2.62C0.397266 2.47333 0.443932 2.38 0.537266 2.34C3.04393 1.34 5.45727 0.84 7.77727 0.84C10.4573 0.84 11.7973 1.49333 11.7973 2.8C11.7973 3.49333 11.3239 4.19333 10.3773 4.9C9.9106 5.24667 9.38393 5.54667 8.79727 5.8C8.22393 6.05333 7.5906 6.26667 6.89727 6.44C7.92393 6.52 8.74393 6.78 9.35727 7.22C9.9706 7.64667 10.2773 8.23333 10.2773 8.98C10.2773 9.7 9.90393 10.3333 9.15727 10.88C8.42393 11.4133 7.5506 11.68 6.53727 11.68ZM2.23727 12.94C2.0106 12.94 1.8106 12.76 1.63727 12.4C1.47727 12.04 1.39727 11.62 1.39727 11.14C1.39727 9.39333 2.36393 6.89333 4.29727 3.64C4.85727 2.58667 5.2306 2.06 5.41727 2.06C5.60393 2.06 5.80393 2.10667 6.01727 2.2C6.2306 2.28 6.33727 2.36 6.33727 2.44C6.33727 2.45333 6.3306 2.47333 6.31727 2.5C3.43727 6.67333 1.99727 9.76 1.99727 11.76C1.99727 12.0133 2.0506 12.26 2.15727 12.5C2.26393 12.74 2.3306 12.86 2.35727 12.86C2.3306 12.9133 2.2906 12.94 2.23727 12.94Z" fill="#141A1F"/>
</svg>
