<svg width="34" height="22" viewBox="0 0 34 22" fill="none" xmlns="http://www.w3.org/2000/svg">
<mask id="mask0_60_17" style="mask-type:alpha" maskUnits="userSpaceOnUse" x="0" y="0" width="34" height="22">
<rect width="34" height="22" fill="#D9D9D9"/>
</mask>
<g mask="url(#mask0_60_17)">
<path d="M-13 63.9801C-13 63.3961 -11.4503 58.0826 -11.1358 57.5883C-9.93397 55.6993 -5.93141 52.6796 -0.834369 49.8164C4.30406 46.93 9.08691 43.8386 8.82386 43.5737C8.78079 43.5304 7.87177 44.0403 6.80389 44.707C5.73601 45.3737 2.61936 47.0711 -0.122013 48.4789C-4.88904 50.9269 -7.35998 52.4593 -9.54366 54.3216L-10.544 55.1747L-10.0829 53.1622C-9.82931 52.0554 -9.55088 50.8224 -9.46419 50.4222C-9.17376 49.082 -8.65093 48.0937 -7.65948 47.011C-6.5232 45.7701 -3.20532 42.9165 -1.80229 41.9735C-1.27467 41.6188 -0.955832 41.3286 -1.09375 41.3286C-1.66255 41.3286 -5.62586 43.9907 -7.10099 45.3635C-7.98027 46.1818 -8.53095 46.5684 -8.32395 46.2221C-8.21869 46.0461 -7.93493 45.1185 -7.69336 44.1609C-5.27456 34.5728 -2.32578 28.7594 3.29357 22.5005C6.43438 19.0023 6.7398 18.1911 5.76115 15.9472C5.0812 14.3882 4.87852 10.6604 5.38472 9.02396C5.77551 7.76057 5.7907 7.78811 4.27047 7.00383C2.53297 6.10747 1.23671 4.23059 0.970726 2.22606C0.886687 1.59254 0.852297 1.0742 0.894335 1.0742C0.9364 1.0742 1.48611 1.604 2.11589 2.25152C3.24486 3.4123 5.3479 4.78218 6.99496 5.42964C9.13201 6.26974 11.7757 7.73656 12.6157 8.54829C13.6759 9.5727 14.5255 10.9317 15.0611 12.4599C15.4202 13.4843 15.4143 13.5446 14.9027 14.0929C13.3008 15.8093 10.0781 15.1802 9.17024 12.9739C8.88193 12.2733 8.93167 10.4276 9.26555 9.43781C9.39694 9.04828 9.28394 8.89483 8.70351 8.67428C7.86952 8.35739 7.70404 8.48506 7.27081 9.77964C6.44942 12.2341 7.62979 15.2997 9.83852 16.4485C11.0516 17.0794 12.7851 17.2043 14.0948 16.7551L15.2195 16.3693L16.4054 18.9066C17.0577 20.3021 17.6734 21.4414 17.7737 21.4384C17.874 21.4356 18.3789 20.4259 18.8957 19.1953C19.4125 17.9646 19.9182 16.8634 20.0194 16.7481C20.1217 16.6316 20.7408 16.6772 21.4135 16.8507C24.5242 17.6532 27.5714 15.5691 28.0936 12.2819C28.2475 11.3128 27.6818 8.75092 27.2554 8.48559C27.0676 8.36877 25.5445 8.7817 25.5445 8.94944C25.5445 8.98684 25.7071 9.40911 25.9059 9.88793C26.3919 11.0588 26.3608 11.8813 25.7854 13.0778C25.234 14.2244 23.8523 15.139 22.6715 15.139C21.5914 15.139 20.0037 14.2731 20.0037 13.684C20.0037 12.9431 20.7237 11.265 21.6598 9.82407C22.6387 8.31718 23.6757 7.5159 26.8981 5.7765C30.0191 4.09178 31.1928 3.21958 32.1121 1.9019C32.7985 0.917878 32.9018 0.848546 32.9731 1.32387C33.2161 2.94375 31.776 5.6996 30.1048 6.81293C29.1641 7.43952 28.9759 7.79875 29.3571 8.23998C30.3768 9.42034 30.3562 13.7201 29.32 16.0008L28.6529 17.4688L29.1671 18.6683C30.9178 22.7525 31.0137 28.6408 29.4197 34.175C28.2664 38.1788 24.7567 43.9109 21.7838 46.6459C20.1715 48.1293 17.8689 49.9033 16.9043 50.4054C16.5059 50.6129 16.1216 50.8775 16.0503 50.9935C15.8918 51.2517 16.6983 54.3026 17.4058 56.1209C17.9793 57.5952 18.7485 58.9308 19.8066 60.2896L20.5035 61.1847L19.7326 60.9621C18.0968 60.4899 16.0322 58.5925 14.8632 56.487C14.3835 55.6231 13.9384 54.6091 13.2392 52.7875C13.0342 52.2532 13.0139 52.2506 12.1807 52.6505C11.1385 53.1508 11.1287 53.3795 12.0331 56.097C12.9704 58.9131 14.1724 60.91 15.8487 62.4359L17.2334 63.6963L15.9084 63.5336C14.217 63.3259 12.3294 62.2077 10.9684 60.6071C9.82131 59.258 8.40775 56.7551 7.95537 55.2722C7.79264 54.7387 7.58297 54.2175 7.48945 54.1139C7.39594 54.0103 6.77444 54.0432 6.10835 54.187C5.44226 54.3308 4.2039 54.4155 3.35642 54.3753L1.81555 54.3022L4.10415 53.1148C9.62727 50.2492 13.7098 47.3364 17.9385 43.2443C21.0174 40.2648 22.2796 38.7102 23.3481 36.5812C24.8533 33.5821 25.2311 30.4383 24.478 27.1771C23.8863 24.6146 23.7123 24.6268 23.8159 27.2235C23.9013 29.3646 23.8404 29.8093 23.2096 31.647C20.6938 38.9767 13.4005 46.1342 1.6951 52.7611C-4.34442 56.1803 -7.34025 58.2233 -9.63257 60.4859C-10.7812 61.6195 -12.0087 62.9101 -12.3605 63.3538C-12.7122 63.7975 -13 64.0793 -13 63.9801ZM13.2151 11.0761C13.3109 10.3973 12.6377 10.0825 12.1469 10.5766C11.6649 11.0618 11.9767 11.7896 12.6267 11.6962C12.9449 11.6505 13.1672 11.4163 13.2151 11.0761ZM23.0922 11.0733C23.191 10.3761 22.5099 10.0872 21.9932 10.6072C21.6734 10.9292 21.663 11.055 21.9295 11.3783C22.363 11.9041 22.9981 11.7375 23.0922 11.0733ZM17.1353 15.805C16.3304 12.2077 15.609 10.5743 14.0677 8.85985C12.7222 7.36323 11.9835 6.92291 7.12161 4.71979C4.47763 3.52169 3.03361 2.14374 2.5386 0.346446C2.39452 -0.176732 2.47714 -0.134063 3.14181 0.657913C4.10202 1.80204 5.73938 2.65279 7.6537 3.00222C8.86025 3.22245 9.59497 3.19311 11.7339 2.83925C14.4568 2.38876 18.1275 2.32947 23.3949 2.6509C25.9564 2.80721 26.2851 2.77716 27.428 2.28226C28.1124 1.98591 29.0526 1.31968 29.5175 0.801742C30.2238 0.0147247 30.3626 -0.0585827 30.3626 0.35541C30.3626 1.16236 29.4497 2.7243 28.3916 3.72749C27.8484 4.24253 26.3623 5.24206 25.0891 5.94867C21.23 8.09041 19.5713 10.2204 18.651 14.2159C18.4266 15.1903 18.1189 16.5055 17.9672 17.1387L17.6914 18.29L17.1353 15.805Z" fill="#4F667D"/>
</g>
</svg>
