<?xml version="1.0" encoding="UTF-8" standalone="no"?>
<!-- Created with Inkscape (http://www.inkscape.org/) -->

<svg
   width="210mm"
   height="297mm"
   viewBox="0 0 210 297"
   version="1.1"
   id="svg5"
   inkscape:version="1.1.2 (b8e25be833, 2022-02-05)"
   sodipodi:docname="logo-raw.svg"
   xmlns:inkscape="http://www.inkscape.org/namespaces/inkscape"
   xmlns:sodipodi="http://sodipodi.sourceforge.net/DTD/sodipodi-0.dtd"
   xmlns="http://www.w3.org/2000/svg"
   xmlns:svg="http://www.w3.org/2000/svg">
  <sodipodi:namedview
     id="namedview7"
     pagecolor="#ffffff"
     bordercolor="#cccccc"
     borderopacity="1"
     inkscape:pageshadow="0"
     inkscape:pageopacity="1"
     inkscape:pagecheckerboard="0"
     inkscape:document-units="mm"
     showgrid="false"
     inkscape:zoom="0.90583672"
     inkscape:cx="459.79589"
     inkscape:cy="580.6786"
     inkscape:window-width="2560"
     inkscape:window-height="1009"
     inkscape:window-x="-8"
     inkscape:window-y="-8"
     inkscape:window-maximized="1"
     inkscape:current-layer="layer1" />
  <defs
     id="defs2" />
  <g
     inkscape:label="Layer 1"
     inkscape:groupmode="layer"
     id="layer1">
    <path
       style="fill:#000000;stroke-width:0.264583"
       d="m 85.442698,170.70095 c 0,-0.63718 1.70202,-6.43469 2.0474,-6.97396 1.32001,-2.06104 5.716,-5.35579 11.31406,-8.47977 5.643522,-3.14935 10.896502,-6.52236 10.607592,-6.81128 -0.0473,-0.0473 -1.04567,0.50909 -2.21851,1.23651 -1.17285,0.72743 -4.59586,2.57934 -7.606702,4.11538 -5.23561,2.67105 -7.94943,4.34293 -10.34775,6.37486 l -1.09871,0.93086 0.50643,-2.1958 c 0.27854,-1.20768 0.58434,-2.55298 0.67956,-2.98954 0.31897,-1.46234 0.89319,-2.54062 1.9821,-3.72194 1.24797,-1.35389 4.89199,-4.46738 6.43293,-5.49637 0.57948,-0.38696 0.92966,-0.70356 0.77818,-0.70356 -0.62471,0 -4.97759,2.90449 -6.59772,4.40238 -0.96571,0.89283 -1.57052,1.31468 -1.34317,0.93684 0.1156,-0.19212 0.42726,-1.20415 0.69257,-2.24896 2.65656,-10.46139 5.89519,-16.80431 12.066902,-23.63326 3.44954,-3.81688 3.78498,-4.70188 2.71013,-7.15017 -0.74678,-1.701 -0.96939,-5.7683 -0.41343,-7.55384 0.42921,-1.37846 0.44589,-1.34841 -1.22377,-2.20412 -1.90829,-0.97801 -3.33197,-3.02584 -3.6241,-5.21294 -0.0923,-0.69122 -0.13007,-1.25677 -0.0839,-1.25677 0.0462,0 0.64994,0.57805 1.34163,1.28455 1.23994,1.2665 3.5497,2.76115 5.35866,3.46759 2.34711,0.91661 5.25066,2.51704 6.17328,3.4027 1.16437,1.11771 2.0975,2.60052 2.68578,4.26787 0.39433,1.11767 0.38789,1.18356 -0.17406,1.78172 -1.75935,1.87275 -5.29877,1.18641 -6.29589,-1.22086 -0.31665,-0.76447 -0.26202,-2.77824 0.10467,-3.85819 0.14431,-0.42501 0.0202,-0.59244 -0.61728,-0.83308 -0.91597,-0.34575 -1.09771,-0.20645 -1.57353,1.20604 -0.90213,2.67799 0.39426,6.02287 2.8201,7.27624 1.33233,0.68839 3.23626,0.82464 4.67463,0.33454 l 1.23531,-0.42092 1.30247,2.7684 c 0.71636,1.52262 1.3926,2.76569 1.50276,2.76236 0.11016,-0.003 0.6647,-1.10465 1.23231,-2.44739 0.56761,-1.34275 1.12296,-2.54427 1.23411,-2.67005 0.11235,-0.12713 0.79236,-0.0774 1.53119,0.11194 3.41642,0.87559 6.76314,-1.39837 7.33666,-4.98496 0.16907,-1.05731 -0.45219,-3.85258 -0.92059,-4.14207 -0.20625,-0.12747 -1.879,0.32308 -1.879,0.5061 0,0.0408 0.17859,0.50153 0.39687,1.02396 0.53379,1.27753 0.49968,2.17492 -0.13231,3.48044 -0.60559,1.25098 -2.12317,2.24891 -3.41998,2.24891 -1.18626,0 -2.93,-0.9448 -2.93,-1.58753 0,-0.8084 0.79072,-2.63936 1.81879,-4.21149 1.07516,-1.64414 2.21409,-2.5184 5.7532,-4.41623 3.42786,-1.83817 4.71694,-2.78981 5.72652,-4.2275 0.75394,-1.07365 0.86738,-1.1493 0.9457,-0.63068 0.26693,1.76742 -1.31473,4.77428 -3.1503,5.98901 -1.03309,0.68366 -1.2398,1.07561 -0.82116,1.55702 1.11993,1.28787 1.09731,5.9793 -0.0408,8.46769 l -0.7326,1.60175 0.56468,1.30867 c 1.92285,4.45618 2.0282,10.88087 0.27745,16.91908 -1.26662,4.3685 -5.12134,10.62273 -8.38641,13.60681 -1.77084,1.61845 -4.29974,3.55408 -5.35917,4.10193 -0.43761,0.2263 -0.85967,0.51504 -0.93792,0.64164 -0.17409,0.2817 0.71168,3.61047 1.48865,5.59441 0.62995,1.60853 1.47478,3.06583 2.63683,4.54842 l 0.76541,0.97654 -0.8467,-0.24284 c -1.79656,-0.51524 -4.06407,-2.58547 -5.34802,-4.8827 -0.52679,-0.94253 -1.01567,-2.04894 -1.78357,-4.03646 -0.22524,-0.58298 -0.24745,-0.58583 -1.16259,-0.14943 -1.14468,0.54586 -1.15544,0.79541 -0.16207,3.76041 1.02941,3.0726 2.34956,5.25139 4.19061,6.91622 l 1.52079,1.37522 -1.45521,-0.17752 c -1.85772,-0.22662 -3.93086,-1.44671 -5.42558,-3.19307 -1.25986,-1.47196 -2.81237,-4.20279 -3.30921,-5.82083 -0.17873,-0.58208 -0.40901,-1.1508 -0.51172,-1.26382 -0.10271,-0.11301 -0.78529,-0.0771 -1.51686,0.0798 -0.73156,0.15689 -2.09165,0.24936 -3.02243,0.20548 l -1.69233,-0.0798 2.51355,-1.29556 c 6.06603,-3.12661 10.54981,-6.30467 15.1942,-10.76952 3.38156,-3.25084 4.76779,-4.94706 5.94139,-7.26999 1.65318,-3.27221 2.06804,-6.70238 1.24097,-10.26062 -0.64986,-2.79585 -0.84101,-2.78255 -0.72722,0.0506 0.0938,2.33618 0.0269,2.82138 -0.66585,4.8264 -2.76312,7.99733 -10.77329,15.8068 -23.62933,23.03728 -6.633182,3.73063 -9.923492,5.95967 -12.441142,8.4283 -1.26149,1.23693 -2.6097,2.64505 -2.99603,3.12916 -0.38632,0.4841 -0.70241,0.79162 -0.70241,0.68337 z m 28.791992,-57.72257 c 0.10518,-0.74064 -0.63419,-1.08407 -1.17327,-0.54499 -0.52941,0.52941 -0.1869,1.32347 0.52693,1.22162 0.34955,-0.0499 0.59363,-0.30539 0.64634,-0.67663 z m 10.84793,-0.003 c 0.10851,-0.76076 -0.63958,-1.07599 -1.20698,-0.50859 -0.35131,0.35131 -0.36272,0.48852 -0.07,0.84128 0.47613,0.5737 1.17356,0.392 1.27694,-0.33269 z m -6.54239,5.1626 c -0.88402,-3.92492 -1.67643,-5.70713 -3.36921,-7.57771 -1.47772,-1.63293 -2.28908,-2.11335 -7.62884,-4.51713 -2.90388,-1.30723 -4.48983,-2.81069 -5.0335,-4.77168 -0.15825,-0.57083 -0.0675,-0.52427 0.66251,0.33984 1.05459,1.24834 2.85289,2.17657 4.95539,2.55783 1.32514,0.24029 2.13209,0.20827 4.48125,-0.17782 2.99059,-0.49152 7.02205,-0.55621 12.80721,-0.2055 2.8133,0.17054 3.17435,0.13776 4.42956,-0.40222 0.75163,-0.32334 1.78431,-1.05025 2.29485,-1.61536 0.77579,-0.8587 0.92825,-0.93869 0.92825,-0.48699 0,0.88045 -1.0027,2.58466 -2.16473,3.67922 -0.5966,0.56195 -2.22883,1.65251 -3.62718,2.42348 -4.23843,2.33681 -6.0602,4.66083 -7.0709,9.02025 -0.24646,1.06309 -0.58444,2.49814 -0.75105,3.18899 l -0.30293,1.25611 z"
       id="path836" />
  </g>
</svg>
